<svg width="34" height="34" viewBox="0 0 34 34" fill="none" xmlns="http://www.w3.org/2000/svg">
<path d="M14.8749 29.0416L29.0416 14.8749C29.7036 14.2262 30.2304 13.4527 30.5915 12.5991C30.9527 11.7455 31.1411 10.8288 31.1458 9.90192C31.1504 8.97508 30.9713 8.0565 30.6188 7.19931C30.2663 6.34211 29.7473 5.5633 29.0919 4.90792C28.4365 4.25253 27.6577 3.73357 26.8005 3.38104C25.9433 3.02851 25.0248 2.84941 24.0979 2.85409C23.1711 2.85877 22.2544 3.04715 21.4008 3.40831C20.5472 3.76948 19.7737 4.29629 19.1249 4.95826L4.95826 19.1249C4.29629 19.7737 3.76948 20.5472 3.40831 21.4008C3.04715 22.2544 2.85877 23.1711 2.85409 24.0979C2.84941 25.0248 3.02851 25.9433 3.38104 26.8005C3.73357 27.6577 4.25253 28.4365 4.90792 29.0919C5.5633 29.7473 6.34211 30.2663 7.19931 30.6188C8.0565 30.9713 8.97508 31.1504 9.90192 31.1458C10.8288 31.1411 11.7455 30.9527 12.5991 30.5915C13.4527 30.2304 14.2262 29.7036 14.8749 29.0416Z" stroke="#D6D6D6" stroke-width="3.5" stroke-linecap="round" stroke-linejoin="round"/>
<path d="M12.0417 12.0415L21.9584 21.9582" stroke="#D6D6D6" stroke-width="3.5" stroke-linecap="round" stroke-linejoin="round"/>
</svg>
