<svg width="80" height="80" viewBox="0 0 80 80" fill="none" xmlns="http://www.w3.org/2000/svg">
<circle cx="40" cy="40" r="40" fill="#FFF5DA"/>
<path d="M45.6667 42.8335V45.9502L47.9334 47.3668" stroke="#FFB600" stroke-width="2.5" stroke-linecap="round" stroke-linejoin="round"/>
<path d="M45.6667 28.6665H48.5001C49.2515 28.6665 49.9722 28.965 50.5035 29.4964C51.0349 30.0277 51.3334 30.7484 51.3334 31.4998V32.6785" stroke="#FFB600" stroke-width="2.5" stroke-linecap="round" stroke-linejoin="round"/>
<path d="M34.3334 28.6665H31.5001C30.7486 28.6665 30.028 28.965 29.4966 29.4964C28.9653 30.0277 28.6667 30.7484 28.6667 31.4998V51.3332C28.6667 52.0846 28.9653 52.8053 29.4966 53.3366C30.028 53.868 30.7486 54.1665 31.5001 54.1665H34.3334" stroke="#FFB600" stroke-width="2.5" stroke-linecap="round" stroke-linejoin="round"/>
<path d="M45.6667 54.1665C50.3612 54.1665 54.1667 50.3609 54.1667 45.6665C54.1667 40.9721 50.3612 37.1665 45.6667 37.1665C40.9723 37.1665 37.1667 40.9721 37.1667 45.6665C37.1667 50.3609 40.9723 54.1665 45.6667 54.1665Z" stroke="#FFB600" stroke-width="2.5" stroke-linecap="round" stroke-linejoin="round"/>
<path d="M44.2499 25.8335H35.7499C34.9675 25.8335 34.3333 26.4678 34.3333 27.2502V30.0835C34.3333 30.8659 34.9675 31.5002 35.7499 31.5002H44.2499C45.0323 31.5002 45.6666 30.8659 45.6666 30.0835V27.2502C45.6666 26.4678 45.0323 25.8335 44.2499 25.8335Z" stroke="#FFB600" stroke-width="2.5" stroke-linecap="round" stroke-linejoin="round"/>
</svg>
