<svg width="25" height="25" viewBox="0 0 25 25" fill="none" xmlns="http://www.w3.org/2000/svg">
<path d="M10.6963 21.875C10.8791 22.1917 11.1421 22.4547 11.4588 22.6375C11.7755 22.8203 12.1348 22.9166 12.5005 22.9166C12.8661 22.9166 13.2254 22.8203 13.5421 22.6375C13.8588 22.4547 14.1218 22.1917 14.3046 21.875" stroke="black" stroke-width="2" stroke-linecap="round" stroke-linejoin="round"/>
<path d="M22.9163 8.33203C22.9163 5.9362 22.083 3.85286 20.833 2.08203" stroke="black" stroke-width="2" stroke-linecap="round" stroke-linejoin="round"/>
<path d="M3.39813 15.9633C3.26205 16.1124 3.17225 16.2979 3.13965 16.4972C3.10705 16.6964 3.13305 16.9008 3.21449 17.0856C3.29594 17.2703 3.42931 17.4274 3.5984 17.5377C3.76748 17.6481 3.96499 17.7069 4.16688 17.707H20.8335C21.0354 17.7071 21.233 17.6485 21.4022 17.5384C21.5714 17.4283 21.7049 17.2714 21.7866 17.0867C21.8682 16.9021 21.8945 16.6977 21.8621 16.4985C21.8298 16.2992 21.7402 16.1136 21.6044 15.9643C20.219 14.5362 18.7502 13.0185 18.7502 8.33203C18.7502 6.67443 18.0917 5.08472 16.9196 3.91261C15.7475 2.74051 14.1578 2.08203 12.5002 2.08203C10.8426 2.08203 9.2529 2.74051 8.0808 3.91261C6.9087 5.08472 6.25022 6.67443 6.25022 8.33203C6.25022 13.0185 4.78042 14.5362 3.39813 15.9633Z" stroke="black" stroke-width="2" stroke-linecap="round" stroke-linejoin="round"/>
<path d="M4.16634 2.08203C2.91634 3.85286 2.08301 5.9362 2.08301 8.33203" stroke="black" stroke-width="2" stroke-linecap="round" stroke-linejoin="round"/>
</svg>
