<svg width="25" height="25" viewBox="0 0 25 25" fill="none" xmlns="http://www.w3.org/2000/svg">
<path d="M12.6323 22.918H5.20833C4.6558 22.918 4.12589 22.6985 3.73519 22.3078C3.34449 21.9171 3.125 21.3872 3.125 20.8346V6.2513C3.125 5.69877 3.34449 5.16886 3.73519 4.77816C4.12589 4.38746 4.6558 4.16797 5.20833 4.16797H19.7917C20.3442 4.16797 20.8741 4.38746 21.2648 4.77816C21.6555 5.16886 21.875 5.69877 21.875 6.2513V11.5898" stroke="black" stroke-width="2" stroke-linecap="round" stroke-linejoin="round"/>
<path d="M15.2294 19.5833C15.0103 19.3548 14.8397 19.0843 14.728 18.7881C14.6162 18.4919 14.5657 18.1761 14.5793 17.8598C14.593 17.5435 14.6706 17.2333 14.8074 16.9478C14.9443 16.6623 15.1376 16.4075 15.3756 16.1988C15.6136 15.99 15.8915 15.8317 16.1924 15.7333C16.4933 15.6349 16.811 15.5985 17.1264 15.6262C17.4418 15.654 17.7482 15.7453 18.0273 15.8948C18.3064 16.0442 18.5523 16.2487 18.7503 16.4958C18.9491 16.2513 19.1953 16.0494 19.4739 15.9022C19.7526 15.755 20.0582 15.6655 20.3722 15.6391C20.6863 15.6127 21.0025 15.6499 21.3018 15.7485C21.6012 15.8471 21.8776 16.005 22.1145 16.2129C22.3514 16.4208 22.5439 16.6743 22.6806 16.9583C22.8172 17.2424 22.8952 17.551 22.9098 17.8659C22.9245 18.1807 22.8754 18.4953 22.7657 18.7907C22.6559 19.0862 22.4877 19.3564 22.2711 19.5854L19.5357 22.5604C19.4381 22.6728 19.3175 22.7629 19.1821 22.8246C19.0467 22.8863 18.8996 22.9183 18.7508 22.9183C18.602 22.9183 18.4549 22.8863 18.3195 22.8246C18.184 22.7629 18.0635 22.6728 17.9659 22.5604L15.2294 19.5833Z" stroke="black" stroke-width="2" stroke-linecap="round" stroke-linejoin="round"/>
<path d="M16.667 2.08203V6.2487" stroke="black" stroke-width="2" stroke-linecap="round" stroke-linejoin="round"/>
<path d="M3.125 10.418H21.875" stroke="black" stroke-width="2" stroke-linecap="round" stroke-linejoin="round"/>
<path d="M8.33301 2.08203V6.2487" stroke="black" stroke-width="2" stroke-linecap="round" stroke-linejoin="round"/>
</svg>
