<svg width="25" height="25" viewBox="0 0 25 25" fill="none" xmlns="http://www.w3.org/2000/svg">
<path d="M9.375 3.125H4.16667C3.59137 3.125 3.125 3.59137 3.125 4.16667V11.4583C3.125 12.0336 3.59137 12.5 4.16667 12.5H9.375C9.9503 12.5 10.4167 12.0336 10.4167 11.4583V4.16667C10.4167 3.59137 9.9503 3.125 9.375 3.125Z" stroke="black" stroke-width="2" stroke-linecap="round" stroke-linejoin="round"/>
<path d="M20.832 3.125H15.6237C15.0484 3.125 14.582 3.59137 14.582 4.16667V7.29167C14.582 7.86696 15.0484 8.33333 15.6237 8.33333H20.832C21.4073 8.33333 21.8737 7.86696 21.8737 7.29167V4.16667C21.8737 3.59137 21.4073 3.125 20.832 3.125Z" stroke="black" stroke-width="2" stroke-linecap="round" stroke-linejoin="round"/>
<path d="M20.832 12.5H15.6237C15.0484 12.5 14.582 12.9664 14.582 13.5417V20.8333C14.582 21.4086 15.0484 21.875 15.6237 21.875H20.832C21.4073 21.875 21.8737 21.4086 21.8737 20.8333V13.5417C21.8737 12.9664 21.4073 12.5 20.832 12.5Z" stroke="black" stroke-width="2" stroke-linecap="round" stroke-linejoin="round"/>
<path d="M9.375 16.668H4.16667C3.59137 16.668 3.125 17.1343 3.125 17.7096V20.8346C3.125 21.4099 3.59137 21.8763 4.16667 21.8763H9.375C9.9503 21.8763 10.4167 21.4099 10.4167 20.8346V17.7096C10.4167 17.1343 9.9503 16.668 9.375 16.668Z" stroke="black" stroke-width="2" stroke-linecap="round" stroke-linejoin="round"/>
</svg>
